<?xml version="1.0" encoding="UTF-8" standalone="no"?>
<!-- Created with Inkscape (http://www.inkscape.org/) -->

<svg
   xmlns:dc="http://purl.org/dc/elements/1.1/"
   xmlns:cc="http://creativecommons.org/ns#"
   xmlns:rdf="http://www.w3.org/1999/02/22-rdf-syntax-ns#"
   xmlns:svg="http://www.w3.org/2000/svg"
   xmlns="http://www.w3.org/2000/svg"
   xmlns:sodipodi="http://sodipodi.sourceforge.net/DTD/sodipodi-0.dtd"
   xmlns:inkscape="http://www.inkscape.org/namespaces/inkscape"
   width="64px"
   height="64px"
   id="svg2985"
   version="1.1"
   inkscape:version="0.48.3.1 r9886"
   sodipodi:docname="chilli-icon.svg"
   inkscape:export-filename="/home/hep016/Dropbox/chilli-icon.png"
   inkscape:export-xdpi="90"
   inkscape:export-ydpi="90">
  <defs
     id="defs2987" />
  <sodipodi:namedview
     id="base"
     pagecolor="#ffffff"
     bordercolor="#666666"
     borderopacity="1.0"
     inkscape:pageopacity="0.0"
     inkscape:pageshadow="2"
     inkscape:zoom="11"
     inkscape:cx="33.35361"
     inkscape:cy="28.367955"
     inkscape:current-layer="layer1"
     showgrid="true"
     inkscape:document-units="px"
     inkscape:grid-bbox="true"
     inkscape:window-width="1598"
     inkscape:window-height="1174"
     inkscape:window-x="1600"
     inkscape:window-y="24"
     inkscape:window-maximized="0" />
  <metadata
     id="metadata2990">
    <rdf:RDF>
      <cc:Work
         rdf:about="">
        <dc:format>image/svg+xml</dc:format>
        <dc:type
           rdf:resource="http://purl.org/dc/dcmitype/StillImage" />
        <dc:title></dc:title>
      </cc:Work>
    </rdf:RDF>
  </metadata>
  <g
     id="layer1"
     inkscape:label="Layer 1"
     inkscape:groupmode="layer">
    <g
       id="g3832"
       transform="matrix(1.1820444,0.23353372,-0.23117367,1.1941118,2.9553898,-14.183323)">
      <g
         id="g3779">
        <path
           style="fill:none;stroke:#000000;stroke-width:1px;stroke-linecap:butt;stroke-linejoin:miter;stroke-opacity:1"
           d="m 49.061475,21.686113 0,0 c 0.280893,0.417425 -19.264302,43.717802 -34.9601,31.666882 -2.150381,-1.794111 3.179185,-3.285363 3.179185,-3.285363 11.10803,-3.67256 17.366027,-35.734785 17.366027,-35.734785 z"
           id="path2993"
           inkscape:connector-curvature="0"
           sodipodi:nodetypes="ccccc" />
        <path
           style="fill:#d40000"
           d="m 15.064155,53.37117 c -0.718868,-0.479452 -0.982894,-0.806783 -0.855313,-1.060394 0.220987,-0.439288 1.165935,-0.957904 2.920954,-1.603106 2.319608,-0.852764 3.946042,-2.07137 5.812117,-4.354731 3.773557,-4.617386 7.547847,-13.432336 10.46829,-24.448954 0.504945,-1.904777 1.545393,-6.228914 1.578086,-6.558584 0.01594,-0.160703 0.369289,0.0077 6.71904,3.201969 l 6.702217,3.371593 -0.208391,0.582075 c -0.326958,0.91324 -4.100261,8.337348 -5.179666,10.191161 -6.260586,10.752237 -11.935447,17.440353 -17.439049,20.552816 -3.802455,2.15041 -7.418188,2.193776 -10.518285,0.126155 l 0,0 z"
           id="path2995"
           inkscape:connector-curvature="0" />
        <path
           style="fill:#ff8080;stroke:none"
           d="m 34.636364,23.727273 c 1,7.181818 -9.727273,22.181818 -9.727273,22.181818 -0.727273,1.909091 1.272727,1.181818 1.272727,1.181818 C 28.909091,47.545455 38,30.727273 38,30.727273 c 2.818182,-4 -1.818182,-8.090909 -1.818182,-8.090909 l 0,0 0,0 c -1.545454,-1.454546 -1.545454,1.090909 -1.545454,1.090909 z"
           id="path3007"
           inkscape:connector-curvature="0" />
      </g>
      <g
         transform="translate(22.727273,2.1818182)"
         id="g3819">
        <path
           style="fill:none;stroke:#000000;stroke-width:1px;stroke-linecap:butt;stroke-linejoin:miter;stroke-opacity:1"
           d="M 6.6363634,14 C 11.636363,7.2727272 19.818181,10.636364 19.818181,10.636364 21,8.3636359 19.090909,6.9090909 19.090909,6.9090909 c 1.454545,-1 1.454545,-1 1.454545,-1 3,4.4545461 1.363636,5.9090911 1.363636,5.9090911 10.909091,6.636363 4.454546,13.545454 4.454546,13.545454 l 0,0 C 22,20.090909 22.454545,17.545455 22.454545,17.545455 l 0,0 C 18,22.636364 15.636363,22 15.636363,22 16.090909,13.818182 16.727272,14.454546 16.727272,14.454546 7.4545454,16.363636 6.6363634,14 6.6363634,14 z"
           id="path3803"
           inkscape:connector-curvature="0"
           sodipodi:nodetypes="cccccccccccc" />
        <path
           style="fill:#008000;stroke:#008000;stroke-width:0.09090909"
           d="m 25.763,23.68814 c -1.214987,-1.67529 -2.078425,-3.242242 -2.499169,-4.535455 -0.235238,-0.723034 -0.258982,-0.908183 -0.239895,-1.87064 0.01165,-0.5875 -0.0098,-1.068182 -0.04766,-1.068182 -0.03786,0 -0.550431,0.530506 -1.139037,1.178901 -1.68039,1.851082 -3.031644,2.967155 -4.346242,3.589796 -0.370562,0.175511 -0.8115,0.346336 -0.979861,0.379611 l -0.306111,0.0605 0.05875,-0.763495 c 0.217356,-2.824515 0.371172,-4.161927 0.602968,-5.242757 l 0.09884,-0.460876 0.653103,-0.108471 c 0.846137,-0.140531 1.009519,-0.224968 0.678689,-0.350752 -0.135927,-0.05168 -0.536668,-0.217169 -0.890535,-0.367753 -0.636917,-0.271032 -0.649072,-0.272475 -1.207404,-0.143291 -1.834497,0.424456 -4.80432,0.734524 -6.192324,0.646518 -1.3043888,-0.0827 -2.5989597,-0.421658 -2.5989597,-0.680477 0,-0.04183 0.3140196,-0.392121 0.6978212,-0.778421 1.654597,-1.665364 3.5992505,-2.554016 6.0557835,-2.767321 1.620169,-0.140682 3.609639,0.115228 5.260249,0.676637 0.36175,0.123039 0.685595,0.192767 0.719655,0.154952 0.03406,-0.03782 0.17702,-0.355119 0.317684,-0.705119 0.439806,-1.0943162 0.3326,-2.2952025 -0.287216,-3.2172963 l -0.207171,-0.3082055 0.19887,-0.1645836 c 0.242508,-0.2006982 0.258704,-0.1837168 0.779439,0.817201 0.956645,1.8387928 1.098983,3.3076714 0.383284,3.9553704 -0.10512,0.09513 -0.191126,0.218517 -0.191126,0.274191 0,0.05567 0.294974,0.28456 0.655496,0.508637 2.681615,1.666716 4.707424,3.775789 5.440773,5.664395 0.634169,1.63319 0.585791,3.40204 -0.139666,5.106655 -0.184929,0.434527 -0.678801,1.228499 -0.761535,1.224276 -0.03229,-0.0016 -0.287661,-0.318694 -0.567496,-0.704545 l 0,0 z"
           id="path3817"
           inkscape:connector-curvature="0" />
      </g>
    </g>
  </g>
</svg>
